<svg xmlns="http://www.w3.org/2000/svg" xmlns:svg="http://www.w3.org/2000/svg" xmlns:xlink="http://www.w3.org/1999/xlink" id="svg2327" width="48" height="48" version="1.1"><defs id="defs3"><radialGradient id="radialGradient4473" cx="15.414" cy="13.078" r="6.656" fx="15.414" fy="13.078" gradientTransform="matrix(2.592963,0,0,2.252104,-25.05975,-18.941)" gradientUnits="userSpaceOnUse" xlink:href="#linearGradient4467"/><linearGradient id="linearGradient4446" x1="30.656" x2="33.219" y1="34" y2="31.063" gradientTransform="matrix(1.334593,0,0,1.291292,-6.973842,-7.460658)" gradientUnits="userSpaceOnUse" xlink:href="#linearGradient4440"/><linearGradient id="linearGradient2852" x1="27.366" x2="31.336" y1="26.58" y2="30.558" gradientUnits="userSpaceOnUse" xlink:href="#linearGradient2846"/><linearGradient id="linearGradient4260" x1="26.076" x2="30.811" y1="26.697" y2="42.007" gradientTransform="matrix(0.998504,0,0,0.998246,-6.970391,-4.892901)" gradientUnits="userSpaceOnUse" xlink:href="#linearGradient2259"/><linearGradient id="linearGradient4258" x1="22.308" x2="35.785" y1="18.992" y2="39.498" gradientTransform="matrix(1.065698,0,0,0.987595,-8.54832,-4.891713)" gradientUnits="userSpaceOnUse" xlink:href="#linearGradient15218"/><linearGradient id="linearGradient2224"><stop style="stop-color:#7c7c7c;stop-opacity:1" id="stop2226" offset="0"/><stop style="stop-color:#b8b8b8;stop-opacity:1" id="stop2228" offset="1"/></linearGradient><linearGradient id="linearGradient2259"><stop style="stop-color:#fff;stop-opacity:1" id="stop2261" offset="0"/><stop style="stop-color:#fff;stop-opacity:0" id="stop2263" offset="1"/></linearGradient><linearGradient id="linearGradient15218"><stop style="stop-color:#f0f0ef;stop-opacity:1" id="stop15220" offset="0"/><stop id="stop2269" offset=".599" style="stop-color:#e8e8e8;stop-opacity:1"/><stop id="stop2267" offset=".828" style="stop-color:#fff;stop-opacity:1"/><stop style="stop-color:#d8d8d3;stop-opacity:1" id="stop15222" offset="1"/></linearGradient><linearGradient id="linearGradient4467"><stop style="stop-color:#fff;stop-opacity:1" id="stop4469" offset="0"/><stop style="stop-color:#fff;stop-opacity:.24761905" id="stop4471" offset="1"/></linearGradient><linearGradient id="linearGradient4454"><stop style="stop-color:#729fcf;stop-opacity:.20784314" id="stop4456" offset="0"/><stop style="stop-color:#729fcf;stop-opacity:.6761905" id="stop4458" offset="1"/></linearGradient><linearGradient id="linearGradient4487"><stop style="stop-color:#fff;stop-opacity:1" id="stop4489" offset="0"/><stop style="stop-color:#fff;stop-opacity:0" id="stop4491" offset="1"/></linearGradient><linearGradient id="linearGradient2366"><stop id="stop2368" offset="0" style="stop-color:#fff;stop-opacity:1"/><stop style="stop-color:#fff;stop-opacity:.21904762" id="stop2374" offset=".5"/><stop id="stop2370" offset="1" style="stop-color:#fff;stop-opacity:1"/></linearGradient><linearGradient id="linearGradient4440"><stop style="stop-color:#7d7d7d;stop-opacity:1" id="stop4442" offset="0"/><stop id="stop4448" offset=".5" style="stop-color:#b1b1b1;stop-opacity:1"/><stop style="stop-color:#686868;stop-opacity:1" id="stop4444" offset="1"/></linearGradient><linearGradient id="linearGradient2846"><stop id="stop2848" offset="0" style="stop-color:#8a8a8a;stop-opacity:1"/><stop id="stop2850" offset="1" style="stop-color:#484848;stop-opacity:1"/></linearGradient><linearGradient id="linearGradient4477"><stop style="stop-color:#000;stop-opacity:1" id="stop4479" offset="0"/><stop style="stop-color:#000;stop-opacity:0" id="stop4481" offset="1"/></linearGradient><radialGradient id="radialGradient6719" cx="605.714" cy="486.648" r="117.143" fx="605.714" fy="486.648" gradientTransform="matrix(-2.774389,0,0,1.969706,112.7623,-872.8854)" gradientUnits="userSpaceOnUse" xlink:href="#linearGradient5060"/><linearGradient id="linearGradient5060"><stop style="stop-color:black;stop-opacity:1" id="stop5062" offset="0"/><stop style="stop-color:black;stop-opacity:0" id="stop5064" offset="1"/></linearGradient><radialGradient id="radialGradient6717" cx="605.714" cy="486.648" r="117.143" fx="605.714" fy="486.648" gradientTransform="matrix(2.774389,0,0,1.969706,-1891.633,-872.8854)" gradientUnits="userSpaceOnUse" xlink:href="#linearGradient5060"/><linearGradient id="linearGradient5048"><stop style="stop-color:black;stop-opacity:0" id="stop5050" offset="0"/><stop id="stop5056" offset=".5" style="stop-color:black;stop-opacity:1"/><stop style="stop-color:black;stop-opacity:0" id="stop5052" offset="1"/></linearGradient><linearGradient id="linearGradient6715" x1="302.857" x2="302.857" y1="366.648" y2="609.505" gradientTransform="matrix(2.774389,0,0,1.969706,-1892.179,-872.8854)" gradientUnits="userSpaceOnUse" xlink:href="#linearGradient5048"/><linearGradient id="linearGradient4548"><stop id="stop4550" offset="0" style="stop-color:#8c8c8c;stop-opacity:1"/><stop id="stop4552" offset="1" style="stop-color:#8c8c8c;stop-opacity:0"/></linearGradient><linearGradient id="linearGradient4009"><stop id="stop4011" offset="0" style="stop-color:#fff;stop-opacity:1"/><stop id="stop4013" offset="1" style="stop-color:#fff;stop-opacity:0"/></linearGradient><linearGradient id="linearGradient3997"><stop id="stop3999" offset="0" style="stop-color:#ebebeb;stop-opacity:1"/><stop id="stop4001" offset="1" style="stop-color:#acacac;stop-opacity:1"/></linearGradient><linearGradient id="linearGradient4003" x1="12.094" x2="30.142" y1="20.937" y2="43.378" gradientUnits="userSpaceOnUse" xlink:href="#linearGradient3997"/><linearGradient id="linearGradient4015" x1="11.89" x2="17.701" y1="19.736" y2="52.666" gradientUnits="userSpaceOnUse" xlink:href="#linearGradient4009"/><linearGradient id="linearGradient4554" x1="11.503" x2="35.257" y1="14.911" y2="5.011" gradientUnits="userSpaceOnUse" xlink:href="#linearGradient4548"/><radialGradient id="radialGradient4942" cx="24.13" cy="37.968" r="16.529" fx="24.13" fy="37.968" gradientTransform="matrix(1,0,0,0.237968,0,28.93278)" gradientUnits="userSpaceOnUse" xlink:href="#linearGradient4477"/><linearGradient id="linearGradient4944" x1="18.293" x2="17.501" y1="13.602" y2="25.743" gradientUnits="userSpaceOnUse" xlink:href="#linearGradient2366"/><radialGradient id="radialGradient4946" cx="24.13" cy="37.968" r="16.529" fx="24.13" fy="37.968" gradientTransform="matrix(1,0,0,0.237968,0,28.93278)" gradientUnits="userSpaceOnUse" xlink:href="#linearGradient4487"/><radialGradient id="radialGradient4948" cx="18.241" cy="21.818" r="8.309" fx="18.241" fy="21.818" gradientUnits="userSpaceOnUse" xlink:href="#linearGradient4454"/><radialGradient id="radialGradient4961" cx="24.13" cy="37.968" r="16.529" fx="24.13" fy="37.968" gradientTransform="matrix(1,0,0,0.237968,0,28.93278)" gradientUnits="userSpaceOnUse" xlink:href="#linearGradient4477"/><linearGradient id="linearGradient4963" x1="27.366" x2="31.336" y1="26.58" y2="30.558" gradientTransform="matrix(-0.9250211,0,0,1.0091596,99.510313,37.988053)" gradientUnits="userSpaceOnUse" xlink:href="#linearGradient2846"/><linearGradient id="linearGradient4965" x1="30.656" x2="33.219" y1="34" y2="31.063" gradientTransform="matrix(-1.2345267,0,0,1.3031197,105.88191,30.308169)" gradientUnits="userSpaceOnUse" xlink:href="#linearGradient4440"/><radialGradient id="radialGradient4969" cx="24.13" cy="37.968" r="16.529" fx="24.13" fy="37.968" gradientTransform="matrix(1,0,0,0.237968,0,28.93278)" gradientUnits="userSpaceOnUse" xlink:href="#linearGradient4487"/><radialGradient id="radialGradient4973" cx="15.414" cy="13.078" r="6.656" fx="15.414" fy="13.078" gradientTransform="matrix(2.3985455,0,0,2.2727324,42.013098,18.899449)" gradientUnits="userSpaceOnUse" xlink:href="#linearGradient4467"/><radialGradient id="radialGradient5030" cx="24.13" cy="37.968" r="16.529" fx="24.13" fy="37.968" gradientTransform="matrix(1,0,0,0.237968,0,28.93278)" gradientUnits="userSpaceOnUse" xlink:href="#linearGradient4487"/></defs><metadata id="metadata4"/><g id="layer4" style="display:none"><path id="path3995" d="M 10.5,19.25 C 10.75,11.875 14.625,8.2499999 19.75,8.3749999 C 24.875,8.4999999 25.625,11.75 32.375,11.75 C 39.125,11.75 39.125,7.2499999 38,5.9999999 C 36.875,4.7499999 35.625,3.4999999 35.625,3.4999999" style="fill:none;stroke:url(#linearGradient4554);stroke-width:1px;stroke-linecap:butt;stroke-linejoin:miter;stroke-opacity:1;display:inline"/><g style="display:inline" id="g6707" transform="matrix(2.446584e-2,0,0,2.086758e-2,44.94828,38.9036)"><rect style="opacity:.40206185;color:#000;fill:url(#linearGradient6715);fill-opacity:1;fill-rule:nonzero;stroke:none;stroke-width:1;marker:none;visibility:visible;display:inline;overflow:visible" id="rect6709" width="1339.633" height="478.357" x="-1559.252" y="-150.697"/><path style="opacity:.40206185;color:#000;fill:url(#radialGradient6717);fill-opacity:1;fill-rule:nonzero;stroke:none;stroke-width:1;marker:none;visibility:visible;display:inline;overflow:visible" id="path6711" d="M -219.61876,-150.68038 C -219.61876,-150.68038 -219.61876,327.65041 -219.61876,327.65041 C -76.744594,328.55086 125.78146,220.48075 125.78138,88.454235 C 125.78138,-43.572302 -33.655436,-150.68036 -219.61876,-150.68038 L -219.61876,-150.68038 z"/><path id="path6713" d="M -1559.2523,-150.68038 C -1559.2523,-150.68038 -1559.2523,327.65041 -1559.2523,327.65041 C -1702.1265,328.55086 -1904.6525,220.48075 -1904.6525,88.454235 C -1904.6525,-43.572302 -1745.2157,-150.68036 -1559.2523,-150.68038 L -1559.2523,-150.68038 z" style="opacity:.40206185;color:#000;fill:url(#radialGradient6719);fill-opacity:1;fill-rule:nonzero;stroke:none;stroke-width:1;marker:none;visibility:visible;display:inline;overflow:visible"/></g><path id="path3233" d="M 1.625,40.71967 C 1.3125,41.65717 1.8125,42.28217 2.75,42.34467 L 42.5,42.34467 C 43.9375,42.40717 44.5,41.46967 44.375,40.71967 L 40.75,21.390165 C 40.5625,20.140165 39.5,19.452665 38.5,19.515165 L 7.75,19.515165 C 6.75,19.452665 6.1875,20.327665 6,21.265165 L 1.625,40.71967 z" style="fill:url(#linearGradient4003);fill-opacity:1;fill-rule:evenodd;stroke:#626262;stroke-width:1;stroke-linecap:butt;stroke-linejoin:miter;stroke-miterlimit:4;stroke-dasharray:none;stroke-opacity:1;display:inline"/><g style="display:inline" id="g4019" transform="translate(-1.9375,-1)"><rect id="rect4017" width="13.938" height="2.938" x="11.188" y="35.125" rx=".688" ry=".688" style="color:#000;fill:#6d6d6d;fill-opacity:1;fill-rule:evenodd;stroke:none;stroke-width:2;marker:none;visibility:visible;display:inline;overflow:visible"/><rect style="color:#000;fill:#e4e4e4;fill-opacity:1;fill-rule:evenodd;stroke:none;stroke-width:2;marker:none;visibility:visible;display:inline;overflow:visible" id="rect3235" width="13.438" height="1.875" x="11.313" y="35.063" rx=".688" ry=".688"/></g><g style="display:inline" id="g4157" transform="matrix(0.233183,0,0,1,4.908258,-11.55329)"><rect style="color:#000;fill:#6d6d6d;fill-opacity:1;fill-rule:evenodd;stroke:none;stroke-width:2;marker:none;visibility:visible;display:inline;overflow:visible" id="rect4159" width="13.938" height="2.938" x="11.188" y="35.125" rx="2.948" ry=".688"/><rect id="rect4161" width="13.438" height="1.875" x="11.313" y="35.063" rx="2.948" ry=".688" style="color:#000;fill:#e4e4e4;fill-opacity:1;fill-rule:evenodd;stroke:none;stroke-width:2;marker:none;visibility:visible;display:inline;overflow:visible"/></g><g style="display:inline" id="g4178" transform="matrix(0.233183,0,0,1,20.79733,-11.55329)"><rect style="color:#000;fill:#6d6d6d;fill-opacity:1;fill-rule:evenodd;stroke:none;stroke-width:2;marker:none;visibility:visible;display:inline;overflow:visible" id="rect4180" width="13.938" height="2.938" x="11.188" y="35.125" rx="2.948" ry=".688"/><rect id="rect4182" width="13.438" height="1.875" x="11.313" y="35.063" rx="2.948" ry=".688" style="color:#000;fill:#e4e4e4;fill-opacity:1;fill-rule:evenodd;stroke:none;stroke-width:2;marker:none;visibility:visible;display:inline;overflow:visible"/></g><g style="display:inline" id="g4151" transform="matrix(0.233183,0,0,1,8.79733,-11.55329)"><rect id="rect4153" width="13.938" height="2.938" x="11.188" y="35.125" rx="2.948" ry=".688" style="color:#000;fill:#6d6d6d;fill-opacity:1;fill-rule:evenodd;stroke:none;stroke-width:2;marker:none;visibility:visible;display:inline;overflow:visible"/><rect style="color:#000;fill:#e4e4e4;fill-opacity:1;fill-rule:evenodd;stroke:none;stroke-width:2;marker:none;visibility:visible;display:inline;overflow:visible" id="rect4155" width="13.438" height="1.875" x="11.313" y="35.063" rx="2.948" ry=".688"/></g><path style="fill:none;stroke:url(#linearGradient4015);stroke-width:.99999952;stroke-linecap:butt;stroke-linejoin:miter;stroke-miterlimit:4;stroke-dasharray:none;stroke-opacity:1;display:inline" id="path4005" d="M 2.7160483,40.201509 C 2.3827415,41.445427 2.3250061,41.296396 3.651931,41.296396 L 41.386453,41.296396 C 43.028316,41.296396 43.584967,41.565014 43.217091,40.139009 L 39.861191,21.987742 C 39.592935,20.584777 39.185783,20.500853 37.614426,20.500853 L 8.6169653,20.500853 C 7.2036636,20.500853 7.268517,20.579543 6.9667033,21.838615 L 2.7160483,40.201509 L 2.7160483,40.201509 z"/><g style="display:inline" id="g4023" transform="matrix(0.233183,0,0,1,21.07875,-1)"><rect style="color:#000;fill:#6d6d6d;fill-opacity:1;fill-rule:evenodd;stroke:none;stroke-width:2;marker:none;visibility:visible;display:inline;overflow:visible" id="rect4025" width="13.938" height="2.938" x="11.188" y="35.125" rx="2.948" ry=".688"/><rect id="rect4027" width="13.438" height="1.875" x="11.313" y="35.063" rx="2.948" ry=".688" style="color:#000;fill:#e4e4e4;fill-opacity:1;fill-rule:evenodd;stroke:none;stroke-width:2;marker:none;visibility:visible;display:inline;overflow:visible"/></g><g style="display:inline" id="g4029" transform="matrix(0.233183,0,0,1,2.76625,-1)"><rect id="rect4031" width="13.938" height="2.938" x="11.188" y="35.125" rx="2.948" ry=".688" style="color:#000;fill:#6d6d6d;fill-opacity:1;fill-rule:evenodd;stroke:none;stroke-width:2;marker:none;visibility:visible;display:inline;overflow:visible"/><rect style="color:#000;fill:#e4e4e4;fill-opacity:1;fill-rule:evenodd;stroke:none;stroke-width:2;marker:none;visibility:visible;display:inline;overflow:visible" id="rect4033" width="13.438" height="1.875" x="11.313" y="35.063" rx="2.948" ry=".688"/></g><g style="display:inline" id="g4035" transform="matrix(0.233183,0,0,1,26.95375,-1)"><rect id="rect4037" width="13.938" height="2.938" x="11.188" y="35.125" rx="2.948" ry=".688" style="color:#000;fill:#6d6d6d;fill-opacity:1;fill-rule:evenodd;stroke:none;stroke-width:2;marker:none;visibility:visible;display:inline;overflow:visible"/><rect style="color:#000;fill:#e4e4e4;fill-opacity:1;fill-rule:evenodd;stroke:none;stroke-width:2;marker:none;visibility:visible;display:inline;overflow:visible" id="rect4039" width="13.438" height="1.875" x="11.313" y="35.063" rx="2.948" ry=".688"/></g><g style="display:inline" id="g4053" transform="matrix(0.233183,0,0,1,30.45375,-4)"><rect id="rect4055" width="13.938" height="2.938" x="11.188" y="35.125" rx="2.948" ry=".688" style="color:#000;fill:#6d6d6d;fill-opacity:1;fill-rule:evenodd;stroke:none;stroke-width:2;marker:none;visibility:visible;display:inline;overflow:visible"/><rect style="color:#000;fill:#e4e4e4;fill-opacity:1;fill-rule:evenodd;stroke:none;stroke-width:2;marker:none;visibility:visible;display:inline;overflow:visible" id="rect4057" width="13.438" height="1.875" x="11.313" y="35.063" rx="2.948" ry=".688"/></g><g style="display:inline" id="g4041" transform="matrix(0.233183,0,0,1,30.70375,-1)"><rect style="color:#000;fill:#6d6d6d;fill-opacity:1;fill-rule:evenodd;stroke:none;stroke-width:2;marker:none;visibility:visible;display:inline;overflow:visible" id="rect4043" width="13.938" height="2.938" x="11.188" y="35.125" rx="2.948" ry=".688"/><rect id="rect4045" width="13.438" height="1.875" x="11.313" y="35.063" rx="2.948" ry=".688" style="color:#000;fill:#e4e4e4;fill-opacity:1;fill-rule:evenodd;stroke:none;stroke-width:2;marker:none;visibility:visible;display:inline;overflow:visible"/></g><g style="display:inline" id="g4047" transform="matrix(0.233183,0,0,1,34.39125,-1)"><rect id="rect4049" width="13.938" height="2.938" x="11.188" y="35.125" rx="2.948" ry=".688" style="color:#000;fill:#6d6d6d;fill-opacity:1;fill-rule:evenodd;stroke:none;stroke-width:2;marker:none;visibility:visible;display:inline;overflow:visible"/><rect style="color:#000;fill:#e4e4e4;fill-opacity:1;fill-rule:evenodd;stroke:none;stroke-width:2;marker:none;visibility:visible;display:inline;overflow:visible" id="rect4051" width="13.438" height="1.875" x="11.313" y="35.063" rx="2.948" ry=".688"/></g><g style="display:inline" id="g4085" transform="matrix(0.233183,0,0,1,3.70375,-5.060656)"><rect style="color:#000;fill:#6d6d6d;fill-opacity:1;fill-rule:evenodd;stroke:none;stroke-width:2;marker:none;visibility:visible;display:inline;overflow:visible" id="rect4087" width="13.938" height="2.938" x="11.188" y="35.125" rx="2.948" ry=".688"/><rect id="rect4089" width="13.438" height="1.875" x="11.313" y="35.063" rx="2.948" ry=".688" style="color:#000;fill:#e4e4e4;fill-opacity:1;fill-rule:evenodd;stroke:none;stroke-width:2;marker:none;visibility:visible;display:inline;overflow:visible"/></g><g style="display:inline" id="g4091" transform="matrix(0.233183,0,0,1,7.70375,-5.060656)"><rect id="rect4093" width="13.938" height="2.938" x="11.188" y="35.125" rx="2.948" ry=".688" style="color:#000;fill:#6d6d6d;fill-opacity:1;fill-rule:evenodd;stroke:none;stroke-width:2;marker:none;visibility:visible;display:inline;overflow:visible"/><rect style="color:#000;fill:#e4e4e4;fill-opacity:1;fill-rule:evenodd;stroke:none;stroke-width:2;marker:none;visibility:visible;display:inline;overflow:visible" id="rect4095" width="13.438" height="1.875" x="11.313" y="35.063" rx="2.948" ry=".688"/></g><g style="display:inline" id="g4097" transform="matrix(0.233183,0,0,1,11.70375,-5.060656)"><rect style="color:#000;fill:#6d6d6d;fill-opacity:1;fill-rule:evenodd;stroke:none;stroke-width:2;marker:none;visibility:visible;display:inline;overflow:visible" id="rect4099" width="13.938" height="2.938" x="11.188" y="35.125" rx="2.948" ry=".688"/><rect id="rect4101" width="13.438" height="1.875" x="11.313" y="35.063" rx="2.948" ry=".688" style="color:#000;fill:#e4e4e4;fill-opacity:1;fill-rule:evenodd;stroke:none;stroke-width:2;marker:none;visibility:visible;display:inline;overflow:visible"/></g><g style="display:inline" id="g4103" transform="matrix(0.233183,0,0,1,15.70375,-5.060656)"><rect id="rect4105" width="13.938" height="2.938" x="11.188" y="35.125" rx="2.948" ry=".688" style="color:#000;fill:#6d6d6d;fill-opacity:1;fill-rule:evenodd;stroke:none;stroke-width:2;marker:none;visibility:visible;display:inline;overflow:visible"/><rect style="color:#000;fill:#e4e4e4;fill-opacity:1;fill-rule:evenodd;stroke:none;stroke-width:2;marker:none;visibility:visible;display:inline;overflow:visible" id="rect4107" width="13.438" height="1.875" x="11.313" y="35.063" rx="2.948" ry=".688"/></g><g style="display:inline" id="g4121" transform="matrix(0.233183,0,0,1,21.70375,-8.2097)"><rect style="color:#000;fill:#6d6d6d;fill-opacity:1;fill-rule:evenodd;stroke:none;stroke-width:2;marker:none;visibility:visible;display:inline;overflow:visible" id="rect4123" width="13.938" height="2.938" x="11.188" y="35.125" rx="2.948" ry=".688"/><rect id="rect4125" width="13.438" height="1.875" x="11.313" y="35.063" rx="2.948" ry=".688" style="color:#000;fill:#e4e4e4;fill-opacity:1;fill-rule:evenodd;stroke:none;stroke-width:2;marker:none;visibility:visible;display:inline;overflow:visible"/></g><g style="display:inline" id="g4109" transform="matrix(0.233183,0,0,1,19.70375,-5.060656)"><rect style="color:#000;fill:#6d6d6d;fill-opacity:1;fill-rule:evenodd;stroke:none;stroke-width:2;marker:none;visibility:visible;display:inline;overflow:visible" id="rect4111" width="13.938" height="2.938" x="11.188" y="35.125" rx="2.948" ry=".688"/><rect id="rect4113" width="13.438" height="1.875" x="11.313" y="35.063" rx="2.948" ry=".688" style="color:#000;fill:#e4e4e4;fill-opacity:1;fill-rule:evenodd;stroke:none;stroke-width:2;marker:none;visibility:visible;display:inline;overflow:visible"/></g><g style="display:inline" id="g4115" transform="matrix(0.233183,0,0,1,23.70375,-5.060656)"><rect id="rect4117" width="13.938" height="2.938" x="11.188" y="35.125" rx="2.948" ry=".688" style="color:#000;fill:#6d6d6d;fill-opacity:1;fill-rule:evenodd;stroke:none;stroke-width:2;marker:none;visibility:visible;display:inline;overflow:visible"/><rect style="color:#000;fill:#e4e4e4;fill-opacity:1;fill-rule:evenodd;stroke:none;stroke-width:2;marker:none;visibility:visible;display:inline;overflow:visible" id="rect4119" width="13.438" height="1.875" x="11.313" y="35.063" rx="2.948" ry=".688"/></g><g style="display:inline" id="g4172" transform="matrix(0.233183,0,0,1,16.79733,-11.55329)"><rect id="rect4174" width="13.938" height="2.938" x="11.188" y="35.125" rx="2.948" ry=".688" style="color:#000;fill:#6d6d6d;fill-opacity:1;fill-rule:evenodd;stroke:none;stroke-width:2;marker:none;visibility:visible;display:inline;overflow:visible"/><rect style="color:#000;fill:#e4e4e4;fill-opacity:1;fill-rule:evenodd;stroke:none;stroke-width:2;marker:none;visibility:visible;display:inline;overflow:visible" id="rect4176" width="13.438" height="1.875" x="11.313" y="35.063" rx="2.948" ry=".688"/></g><g style="display:inline" id="g4127" transform="matrix(0.233183,0,0,1,17.70375,-8.2097)"><rect id="rect4129" width="13.938" height="2.938" x="11.188" y="35.125" rx="2.948" ry=".688" style="color:#000;fill:#6d6d6d;fill-opacity:1;fill-rule:evenodd;stroke:none;stroke-width:2;marker:none;visibility:visible;display:inline;overflow:visible"/><rect style="color:#000;fill:#e4e4e4;fill-opacity:1;fill-rule:evenodd;stroke:none;stroke-width:2;marker:none;visibility:visible;display:inline;overflow:visible" id="rect4131" width="13.438" height="1.875" x="11.313" y="35.063" rx="2.948" ry=".688"/></g><g style="display:inline" id="g4166" transform="matrix(0.233183,0,0,1,12.79733,-11.55329)"><rect style="color:#000;fill:#6d6d6d;fill-opacity:1;fill-rule:evenodd;stroke:none;stroke-width:2;marker:none;visibility:visible;display:inline;overflow:visible" id="rect4168" width="13.938" height="2.938" x="11.188" y="35.125" rx="2.948" ry=".688"/><rect id="rect4170" width="13.438" height="1.875" x="11.313" y="35.063" rx="2.948" ry=".688" style="color:#000;fill:#e4e4e4;fill-opacity:1;fill-rule:evenodd;stroke:none;stroke-width:2;marker:none;visibility:visible;display:inline;overflow:visible"/></g><g style="display:inline" id="g4133" transform="matrix(0.233183,0,0,1,13.70375,-8.2097)"><rect style="color:#000;fill:#6d6d6d;fill-opacity:1;fill-rule:evenodd;stroke:none;stroke-width:2;marker:none;visibility:visible;display:inline;overflow:visible" id="rect4135" width="13.938" height="2.938" x="11.188" y="35.125" rx="2.948" ry=".688"/><rect id="rect4137" width="13.438" height="1.875" x="11.313" y="35.063" rx="2.948" ry=".688" style="color:#000;fill:#e4e4e4;fill-opacity:1;fill-rule:evenodd;stroke:none;stroke-width:2;marker:none;visibility:visible;display:inline;overflow:visible"/></g><g style="display:inline" id="g4139" transform="matrix(0.233183,0,0,1,9.70375,-8.2097)"><rect id="rect4141" width="13.938" height="2.938" x="11.188" y="35.125" rx="2.948" ry=".688" style="color:#000;fill:#6d6d6d;fill-opacity:1;fill-rule:evenodd;stroke:none;stroke-width:2;marker:none;visibility:visible;display:inline;overflow:visible"/><rect style="color:#000;fill:#e4e4e4;fill-opacity:1;fill-rule:evenodd;stroke:none;stroke-width:2;marker:none;visibility:visible;display:inline;overflow:visible" id="rect4143" width="13.438" height="1.875" x="11.313" y="35.063" rx="2.948" ry=".688"/></g><g style="display:inline" id="g4145" transform="matrix(0.233183,0,0,1,5.70375,-8.2097)"><rect style="color:#000;fill:#6d6d6d;fill-opacity:1;fill-rule:evenodd;stroke:none;stroke-width:2;marker:none;visibility:visible;display:inline;overflow:visible" id="rect4147" width="13.938" height="2.938" x="11.188" y="35.125" rx="2.948" ry=".688"/><rect id="rect4149" width="13.438" height="1.875" x="11.313" y="35.063" rx="2.948" ry=".688" style="color:#000;fill:#e4e4e4;fill-opacity:1;fill-rule:evenodd;stroke:none;stroke-width:2;marker:none;visibility:visible;display:inline;overflow:visible"/></g><g style="display:inline" id="g4220" transform="matrix(0.233183,0,0,1,28.63055,-8.121316)"><rect id="rect4222" width="13.938" height="2.938" x="11.188" y="35.125" rx="2.948" ry=".688" style="color:#000;fill:#6d6d6d;fill-opacity:1;fill-rule:evenodd;stroke:none;stroke-width:2;marker:none;visibility:visible;display:inline;overflow:visible"/><rect style="color:#000;fill:#e4e4e4;fill-opacity:1;fill-rule:evenodd;stroke:none;stroke-width:2;marker:none;visibility:visible;display:inline;overflow:visible" id="rect4224" width="13.438" height="1.875" x="11.313" y="35.063" rx="2.948" ry=".688"/></g><g style="display:inline" id="g4226" transform="matrix(0.233183,0,0,1,32.63055,-8.121316)"><rect style="color:#000;fill:#6d6d6d;fill-opacity:1;fill-rule:evenodd;stroke:none;stroke-width:2;marker:none;visibility:visible;display:inline;overflow:visible" id="rect4228" width="13.938" height="2.938" x="11.188" y="35.125" rx="2.948" ry=".688"/><rect id="rect4230" width="13.438" height="1.875" x="11.313" y="35.063" rx="2.948" ry=".688" style="color:#000;fill:#e4e4e4;fill-opacity:1;fill-rule:evenodd;stroke:none;stroke-width:2;marker:none;visibility:visible;display:inline;overflow:visible"/></g><g style="display:inline" id="g4264" transform="matrix(1,0,0,1.45,0.850955,-9.293134)"><rect id="rect4254" width="2.475" height="1.503" x="29.522" y="21.572" rx="2.948" ry=".474" style="color:#000;fill:#787843;fill-opacity:1;fill-rule:evenodd;stroke:none;stroke-width:1;marker:none;visibility:visible;display:inline;overflow:visible"/><rect style="color:#000;fill:#787843;fill-opacity:1;fill-rule:evenodd;stroke:none;stroke-width:1;marker:none;visibility:visible;display:inline;overflow:visible" id="rect4256" width="2.475" height="1.503" x="33.522" y="21.572" rx="2.948" ry=".474"/><rect style="color:#000;fill:#e7e745;fill-opacity:1;fill-rule:evenodd;stroke:none;stroke-width:1;marker:none;visibility:visible;display:inline;overflow:visible" id="rect4250" width="2.475" height="1.503" x="29.787" y="21.837" rx="2.948" ry=".474"/><rect id="rect4252" width="2.475" height="1.503" x="33.787" y="21.837" rx="2.948" ry=".474" style="color:#000;fill:#e7e745;fill-opacity:1;fill-rule:evenodd;stroke:none;stroke-width:1;marker:none;visibility:visible;display:inline;overflow:visible"/></g></g><g id="layer1" style="display:inline"><rect style="opacity:1;fill:#fff;fill-opacity:1;stroke:#2009ed;stroke-width:0;stroke-miterlimit:4;stroke-dasharray:none;stroke-opacity:1" id="rect4851" width="48" height="48" x="0" y="0" ry="2.745"/><rect style="opacity:1;fill:none;fill-opacity:1;stroke:#5a5a5a;stroke-width:.579;stroke-miterlimit:4;stroke-dasharray:none;stroke-opacity:1" id="rect4855" width="34.306" height="31.361" x="5.53" y="7.788" ry=".296"/><rect style="opacity:1;fill:#c8c8c8;fill-opacity:1;stroke:#5a5a5a;stroke-width:.521;stroke-miterlimit:4;stroke-dasharray:none;stroke-opacity:1" id="rect4857" width="7.919" height="4.515" x="5.487" y="3.277" ry=".296"/><rect style="display:inline;opacity:1;fill:#c8c8c8;fill-opacity:1;stroke:#5a5a5a;stroke-width:.52100003;stroke-miterlimit:4;stroke-dasharray:none;stroke-opacity:1" id="rect4857-2" width="7.919" height="4.515" x="21.845" y="3.306" ry=".296"/><rect style="display:inline;opacity:1;fill:#c8c8c8;fill-opacity:1;stroke:#5a5a5a;stroke-width:.52100003;stroke-miterlimit:4;stroke-dasharray:none;stroke-opacity:1" id="rect4857-9" width="7.919" height="4.515" x="29.765" y="3.306" ry=".296"/><rect style="display:inline;opacity:1;fill:#fafafa;fill-opacity:1;stroke:#5a5a5a;stroke-width:.5369944;stroke-miterlimit:4;stroke-dasharray:none;stroke-opacity:1" id="rect4857-1" width="8.443" height="4.499" x="13.414" y="3.285" ry=".295"/><rect style="display:inline;opacity:1;fill:#7f7f7f;fill-opacity:1;stroke:none;stroke-width:.29482114;stroke-miterlimit:4;stroke-dasharray:none;stroke-opacity:1" id="rect4857-27" width="5.36" height="2.136" x="7.734" y="9.855" ry=".14"/><rect style="display:inline;opacity:1;fill:#7f7f7f;fill-opacity:1;stroke:none;stroke-width:.25511548;stroke-miterlimit:4;stroke-dasharray:none;stroke-opacity:1" id="rect4857-27-9" width="4.014" height="2.136" x="14.198" y="9.855" ry=".14"/><rect style="display:inline;opacity:1;fill:#7f7f7f;fill-opacity:1;stroke:none;stroke-width:.21653539;stroke-miterlimit:4;stroke-dasharray:none;stroke-opacity:1" id="rect4857-27-3" width="2.892" height="2.136" x="19.225" y="9.855" ry=".14"/><rect style="display:inline;opacity:1;fill:#7f7f7f;fill-opacity:1;stroke:none;stroke-width:.26075912;stroke-miterlimit:4;stroke-dasharray:none;stroke-opacity:1" id="rect4857-27-6" width="4.193" height="2.136" x="23.04" y="9.855" ry=".14"/><rect style="display:inline;opacity:1;fill:#7f7f7f;fill-opacity:1;stroke:none;stroke-width:.226395;stroke-miterlimit:4;stroke-dasharray:none;stroke-opacity:1" id="rect4857-27-0" width="3.161" height="2.136" x="28.132" y="9.855" ry=".14"/><rect style="display:inline;opacity:1;fill:#7f7f7f;fill-opacity:1;stroke:none;stroke-width:.27831173;stroke-miterlimit:4;stroke-dasharray:none;stroke-opacity:1" id="rect4857-27-62" width="4.777" height="2.136" x="32.575" y="9.855" ry=".14"/><rect style="display:inline;opacity:1;fill:#0a00ff;fill-opacity:1;stroke:none;stroke-width:.2044324;stroke-miterlimit:4;stroke-dasharray:none;stroke-opacity:1" id="rect4857-27-61" width="2.577" height="2.136" x="7.734" y="12.997" ry=".14"/><rect style="display:inline;opacity:1;fill:#0a00ff;fill-opacity:1;stroke:none;stroke-width:.2796163;stroke-miterlimit:4;stroke-dasharray:none;stroke-opacity:1" id="rect4857-27-61-8" width="4.822" height="2.136" x="11.325" y="12.997" ry=".14"/><rect style="display:inline;opacity:1;fill:#0a00ff;fill-opacity:1;stroke:none;stroke-width:.35732239;stroke-miterlimit:4;stroke-dasharray:none;stroke-opacity:1" id="rect4857-27-61-7" width="7.874" height="2.136" x="17.205" y="12.997" ry=".14"/><rect style="display:inline;opacity:1;fill:#0a00ff;fill-opacity:1;stroke:none;stroke-width:.21987106;stroke-miterlimit:4;stroke-dasharray:none;stroke-opacity:1" id="rect4857-27-61-9" width="2.981" height="2.136" x="26.228" y="12.997" ry=".14"/><rect style="display:inline;opacity:1;fill:#0a00ff;fill-opacity:1;stroke:none;stroke-width:.33307457;stroke-miterlimit:4;stroke-dasharray:none;stroke-opacity:1" id="rect4857-27-61-2" width="6.842" height="2.136" x="30.511" y="12.997" ry=".14"/><rect style="display:inline;opacity:1;fill:#7f7f7f;fill-opacity:1;stroke:none;stroke-width:.32421574;stroke-miterlimit:4;stroke-dasharray:none;stroke-opacity:1" id="rect4857-27-02" width="6.483" height="2.136" x="7.734" y="16.049" ry=".14"/><rect style="display:inline;opacity:1;fill:#7f7f7f;fill-opacity:1;stroke:none;stroke-width:.24788029;stroke-miterlimit:4;stroke-dasharray:none;stroke-opacity:1" id="rect4857-27-37" width="3.789" height="2.136" x="15.32" y="16.049" ry=".14"/><rect style="display:inline;opacity:1;fill:#7f7f7f;fill-opacity:1;stroke:none;stroke-width:.45177856;stroke-miterlimit:4;stroke-dasharray:none;stroke-opacity:1" id="rect4857-27-5" width="12.587" height="2.136" x="20.213" y="16.049" ry=".14"/><rect style="display:inline;opacity:1;fill:#7f7f7f;fill-opacity:1;stroke:none;stroke-width:.20970495;stroke-miterlimit:4;stroke-dasharray:none;stroke-opacity:1" id="rect4857-27-92" width="2.712" height="2.136" x="34.64" y="16.049" ry=".14"/><rect style="display:inline;opacity:1;fill:#cf0400;fill-opacity:1;stroke:none;stroke-width:.33849362;stroke-miterlimit:4;stroke-dasharray:none;stroke-opacity:1" id="rect4857-27-61-28" width="7.066" height="2.136" x="7.734" y="19.147" ry=".14"/><rect style="display:inline;opacity:1;fill:#cf0400;fill-opacity:1;stroke:none;stroke-width:.27436081;stroke-miterlimit:4;stroke-dasharray:none;stroke-opacity:1" id="rect4857-27-61-28-9" width="4.642" height="2.136" x="16.307" y="19.147" ry=".14"/><rect style="display:inline;opacity:1;fill:#cf0400;fill-opacity:1;stroke:none;stroke-width:.37810609;stroke-miterlimit:4;stroke-dasharray:none;stroke-opacity:1" id="rect4857-27-61-28-7" width="8.817" height="2.136" x="22.232" y="19.147" ry=".14"/><rect style="display:inline;opacity:1;fill:#cf0400;fill-opacity:1;stroke:none;stroke-width:.25511548;stroke-miterlimit:4;stroke-dasharray:none;stroke-opacity:1" id="rect4857-27-61-28-3" width="4.014" height="2.136" x="33.339" y="19.147" ry=".14"/><rect style="display:inline;opacity:1;fill:#7f7f7f;fill-opacity:1;stroke:none;stroke-width:.29358417;stroke-miterlimit:4;stroke-dasharray:none;stroke-opacity:1" id="rect4857-27-02-6" width="5.316" height="2.136" x="7.734" y="21.975" ry=".14"/><rect style="display:inline;opacity:1;fill:#7f7f7f;fill-opacity:1;stroke:none;stroke-width:.28349397;stroke-miterlimit:4;stroke-dasharray:none;stroke-opacity:1" id="rect4857-27-02-1" width="4.956" height="2.136" x="14.22" y="21.975" ry=".14"/><rect style="display:inline;opacity:1;fill:#7f7f7f;fill-opacity:1;stroke:none;stroke-width:.36137336;stroke-miterlimit:4;stroke-dasharray:none;stroke-opacity:1" id="rect4857-27-02-2" width="8.054" height="2.136" x="20.325" y="21.975" ry=".14"/><rect style="display:inline;opacity:1;fill:#7f7f7f;fill-opacity:1;stroke:none;stroke-width:.34698814;stroke-miterlimit:4;stroke-dasharray:none;stroke-opacity:1" id="rect4857-27-02-9" width="7.425" height="2.136" x="29.927" y="21.975" ry=".14"/><rect style="display:inline;opacity:1;fill:#ef9e03;fill-opacity:1;stroke:none;stroke-width:.22799681;stroke-miterlimit:4;stroke-dasharray:none;stroke-opacity:1" id="rect4857-27-61-28-31" width="3.206" height="2.136" x="7.734" y="25.072" ry=".14"/><rect style="display:inline;opacity:1;fill:#ef9e03;fill-opacity:1;stroke:none;stroke-width:.28604987;stroke-miterlimit:4;stroke-dasharray:none;stroke-opacity:1" id="rect4857-27-61-28-31-7" width="5.046" height="2.136" x="12.357" y="25.072" ry=".14"/><rect style="display:inline;opacity:1;fill:#ef9e03;fill-opacity:1;stroke:none;stroke-width:.36736605;stroke-miterlimit:4;stroke-dasharray:none;stroke-opacity:1" id="rect4857-27-61-28-31-8" width="8.323" height="2.136" x="19.36" y="25.072" ry=".14"/><rect style="display:inline;opacity:1;fill:#ef9e03;fill-opacity:1;stroke:none;stroke-width:.35527956;stroke-miterlimit:4;stroke-dasharray:none;stroke-opacity:1" id="rect4857-27-61-28-31-4" width="7.784" height="2.136" x="29.568" y="25.072" ry=".14"/><rect style="display:inline;opacity:1;fill:#7f7f7f;fill-opacity:1;stroke:none;stroke-width:.3876116;stroke-miterlimit:4;stroke-dasharray:none;stroke-opacity:1" id="rect4857-27-02-6-5" width="9.266" height="2.136" x="7.734" y="28.124" ry=".14"/><rect style="display:inline;opacity:1;fill:#7f7f7f;fill-opacity:1;stroke:none;stroke-width:.33307457;stroke-miterlimit:4;stroke-dasharray:none;stroke-opacity:1" id="rect4857-27-02-6-0" width="6.842" height="2.136" x="18.619" y="28.124" ry=".14"/><rect style="display:inline;opacity:1;fill:#7f7f7f;fill-opacity:1;stroke:none;stroke-width:.20264442;stroke-miterlimit:4;stroke-dasharray:none;stroke-opacity:1" id="rect4857-27-02-6-3" width="2.533" height="2.136" x="26.385" y="28.124" ry=".14"/><rect style="display:inline;opacity:1;fill:#7f7f7f;fill-opacity:1;stroke:none;stroke-width:.34593773;stroke-miterlimit:4;stroke-dasharray:none;stroke-opacity:1" id="rect4857-27-02-6-6" width="7.38" height="2.136" x="29.972" y="28.124" ry=".14"/><rect style="display:inline;opacity:1;fill:#47cf00;fill-opacity:1;stroke:none;stroke-width:.3230913;stroke-miterlimit:4;stroke-dasharray:none;stroke-opacity:1" id="rect4857-27-61-28-1" width="6.438" height="2.136" x="7.734" y="31.177" ry=".14"/><rect style="display:inline;opacity:1;fill:#47cf00;fill-opacity:1;stroke:none;stroke-width:.25653803;stroke-miterlimit:4;stroke-dasharray:none;stroke-opacity:1" id="rect4857-27-61-28-1-0" width="4.059" height="2.136" x="15.454" y="31.177" ry=".14"/><rect style="display:inline;opacity:1;fill:#47cf00;fill-opacity:1;stroke:none;stroke-width:.35322496;stroke-miterlimit:4;stroke-dasharray:none;stroke-opacity:1" id="rect4857-27-61-28-1-6" width="7.695" height="2.136" x="20.411" y="31.177" ry=".14"/><rect style="display:inline;opacity:1;fill:#47cf00;fill-opacity:1;stroke:none;stroke-width:.34698811;stroke-miterlimit:4;stroke-dasharray:none;stroke-opacity:1" id="rect4857-27-61-28-1-3" width="7.425" height="2.136" x="29.927" y="31.177" ry=".14"/><rect style="display:inline;opacity:1;fill:#7f7f7f;fill-opacity:1;stroke:none;stroke-width:.21820962;stroke-miterlimit:4;stroke-dasharray:none;stroke-opacity:1" id="rect4857-27-02-6-5-2" width="2.937" height="2.136" x="7.734" y="34.184" ry=".14"/><rect style="display:inline;opacity:1;fill:#7f7f7f;fill-opacity:1;stroke:none;stroke-width:.3139509;stroke-miterlimit:4;stroke-dasharray:none;stroke-opacity:1" id="rect4857-27-02-6-5-0" width="6.079" height="2.136" x="12.084" y="34.184" ry=".14"/><rect style="display:inline;opacity:1;fill:#7f7f7f;fill-opacity:1;stroke:none;stroke-width:.3876116;stroke-miterlimit:4;stroke-dasharray:none;stroke-opacity:1" id="rect4857-27-02-6-5-6" width="9.266" height="2.136" x="19.158" y="34.184" ry=".14"/><rect style="display:inline;opacity:1;fill:#7f7f7f;fill-opacity:1;stroke:none;stroke-width:.30092987;stroke-miterlimit:4;stroke-dasharray:none;stroke-opacity:1" id="rect4857-27-02-6-5-1" width="5.585" height="2.136" x="31.768" y="34.184" ry=".14"/></g><g id="layer3" style="display:inline"><path style="color:#000;fill:url(#radialGradient5030);fill-opacity:1;fill-rule:evenodd;stroke:none;stroke-width:1;marker:none;visibility:visible;display:inline;overflow:visible" id="path4906" d="M 40.65864 37.967922 A 16.528622 3.9332814 0 1 1 7.6013966,37.967922 A 16.528622 3.9332814 0 1 1 40.65864 37.967922 z" transform="matrix(-0.3656062,0,0,0.4884928,80.150769,-11.870012)"/><g style="display:inline" id="g1772" transform="matrix(0.61453382,0,0,0.67043086,16.054904,15.409551)"><ellipse style="color:#000;display:inline;overflow:visible;visibility:visible;opacity:.17112301;fill:url(#radialGradient4942);fill-opacity:1;fill-rule:evenodd;stroke:none;stroke-width:1;marker:none" id="path4475" cx="24.13" cy="37.968" rx="16.529" ry="3.933" transform="matrix(1.446431,0,0,1.51999,-10.97453,-17.75168)"/><path id="path2844" d="m 18.627569,3.1435548 c -8.13913,0 -14.7448008,6.6056711 -14.7448008,14.7448012 0,8.13913 6.6056708,14.744802 14.7448008,14.744802 3.479555,0 6.551001,-1.384393 9.073723,-3.402647 -0.205377,1.006881 -0.07803,2.035368 0.756144,2.759925 l 10.964084,9.52741 c 1.233416,1.071329 3.087462,0.93096 4.15879,-0.302457 1.071328,-1.233418 0.930959,-3.087462 -0.302457,-4.15879 L 32.313769,27.529188 c -0.671527,-0.583279 -1.492878,-0.755969 -2.306238,-0.642722 1.9867,-2.512422 3.364839,-5.548803 3.364839,-8.99811 0,-8.1391301 -6.605671,-14.7448012 -14.744801,-14.7448012 z m -0.07562,1.2261833 c 7.639459,0 13.291775,4.7889505 13.291775,13.2917749 0,8.675113 -5.81669,13.291775 -13.291775,13.291775 -7.302949,0 -13.2917734,-5.478092 -13.2917734,-13.291775 0,-7.9841069 5.8246384,-13.291775 13.2917734,-13.2917749 z" style="color:#000;display:inline;overflow:visible;visibility:visible;fill:#dcdcdc;fill-opacity:1;fill-rule:evenodd;stroke:url(#linearGradient2852);stroke-width:2.00000095;stroke-linecap:round;stroke-linejoin:miter;stroke-miterlimit:10;stroke-dasharray:none;stroke-dashoffset:0;stroke-opacity:1;marker:none"/><path style="color:#000;display:inline;overflow:visible;visibility:visible;fill:#dcdcdc;fill-opacity:1;fill-rule:evenodd;stroke:none;stroke-width:1.00000036;marker:none" id="path4430" d="m 18.602905,3.0803551 c -8.16544,0 -14.7924642,6.627024 -14.7924642,14.7924639 0,8.16544 6.6270242,14.792464 14.7924642,14.792464 3.490803,0 6.572177,-1.388867 9.103055,-3.413645 -0.206041,1.010136 -0.07829,2.041947 0.758587,2.768846 l 10.999526,9.558207 c 1.237403,1.074792 3.097442,0.93397 4.172233,-0.303435 1.074791,-1.237404 0.933968,-3.097442 -0.303435,-4.172233 L 32.333346,27.544815 c -0.673698,-0.585164 -1.497704,-0.758413 -2.313693,-0.644799 1.993122,-2.520544 3.375716,-5.56674 3.375716,-9.027197 0,-8.1654399 -6.627024,-14.7924639 -14.792464,-14.7924639 z m -0.07586,3.1860692 c 6.281108,2e-7 11.378818,5.0977107 11.378818,11.3788187 0,6.281108 -5.09771,11.378818 -11.378818,11.378818 -6.281108,0 -11.3788184,-5.09771 -11.3788184,-11.378818 2e-7,-6.281108 5.0977104,-11.3788187 11.3788184,-11.3788187 z"/><path style="color:#000;display:inline;overflow:visible;visibility:visible;fill:url(#linearGradient4446);fill-opacity:1;fill-rule:evenodd;stroke:none;stroke-width:1;marker:none" id="path4438" d="m 39.507004,41.57769 c -0.478672,-2.273187 1.39733,-4.811422 3.584053,-4.788375 0,0 -10.760367,-9.258111 -10.760367,-9.258111 -2.944791,-0.05671 -4.269502,2.272616 -3.776814,4.599922 z"/><circle style="color:#000;display:inline;overflow:visible;visibility:visible;fill:none;stroke:url(#linearGradient4944);stroke-width:.8027336;stroke-linecap:round;stroke-linejoin:miter;stroke-miterlimit:10;stroke-dasharray:none;stroke-dashoffset:0;stroke-opacity:1;marker:none" id="path4450" cx="17.501" cy="18.92" r="11.049" transform="matrix(1.245743,0,0,1.245743,-3.425346,-6.177033)"/><ellipse id="path4485" cx="24.13" cy="37.968" ry="3.933" transform="matrix(0.497764,0,0,0.609621,8.973526,15.61929)" style="color:#000;display:inline;overflow:visible;visibility:visible;fill:url(#radialGradient4946);fill-opacity:1;fill-rule:evenodd;stroke:none;stroke-width:1;marker:none" rx="16.529"/><rect style="color:#000;display:inline;overflow:visible;visibility:visible;opacity:.43315507;fill:none;stroke:#fff;stroke-width:1.00003111;stroke-linecap:round;stroke-linejoin:miter;stroke-miterlimit:10;stroke-dasharray:none;stroke-dashoffset:0;stroke-opacity:1;marker:none" id="rect4495" width="19.048" height="4.44" x="40.373" y=".141" rx="2.137" ry="1.888" transform="matrix(0.752986,0.658037,-0.648902,0.760872,0,0)"/><circle style="color:#000;visibility:visible;fill:url(#radialGradient4948);fill-opacity:1;fill-rule:evenodd;stroke:#3063a3;stroke-width:.71499395;stroke-linecap:round;stroke-linejoin:miter;stroke-miterlimit:10;stroke-dashoffset:0;stroke-opacity:1;marker:none" id="path4452" cx="17.589" cy="18.478" r="8.309" transform="matrix(1.398614,0,0,1.398614,-6.224338,-8.298958)"/><path style="color:#000;display:inline;overflow:visible;visibility:visible;opacity:.83422457;fill:url(#radialGradient4473);fill-opacity:1;fill-rule:evenodd;stroke:none;stroke-width:1;marker:none" id="path4462" d="m 18.156915,7.3966938 c -5.20759,0 -9.4245469,4.2169572 -9.4245469,9.4245472 0,1.503975 0.4203072,2.887773 1.0471719,4.149903 1.25238,0.461613 2.582757,0.775683 3.994767,0.775683 6.170955,0 11.099282,-4.861637 11.480106,-10.937129 C 23.523449,8.7641668 21.044374,7.3966938 18.156915,7.3966938 Z"/></g></g></svg>