<svg xmlns="http://www.w3.org/2000/svg" xmlns:osb="http://www.openswatchbook.org/uri/2009/osb" xmlns:svg="http://www.w3.org/2000/svg" xmlns:xlink="http://www.w3.org/1999/xlink" id="svg2" width="210mm" height="297mm" version="1.1" viewBox="0 0 744.094 1052.362"><defs id="defs4"><linearGradient id="linearGradient5672"><stop id="stop5676" offset="0" style="stop-color:#59f;stop-opacity:0"/><stop id="stop5674" offset="1" style="stop-color:#59f;stop-opacity:1"/></linearGradient><linearGradient id="linearGradient4180" osb:paint="solid"><stop style="stop-color:#000;stop-opacity:1" id="stop4182" offset="0"/></linearGradient><radialGradient id="radialGradient5678" cx="323.342" cy="381.871" r="251.429" fx="323.342" fy="381.871" gradientTransform="matrix(-0.00340705,-0.3730786,0.59098882,-0.00545891,-138.66162,1123.2976)" gradientUnits="userSpaceOnUse" xlink:href="#linearGradient5672"/></defs><metadata id="metadata7"/><g id="layer1" style="opacity:.39500002"><rect style="opacity:1;fill:url(#radialGradient5678);fill-opacity:1" id="rect4136" width="165" height="105.6" x="0" y="946.762"/></g><g id="layer2"><flowRoot id="flowRoot5683" transform="matrix(0.328125,0,0,0.33,-24.91971,868.2622)" xml:space="preserve" style="font-style:normal;font-variant:normal;font-weight:400;font-stretch:normal;font-size:40px;line-height:125%;font-family:'Gill Sans';-inkscape-font-specification:'Gill Sans, Normal';text-align:start;letter-spacing:0;word-spacing:0;writing-mode:lr-tb;text-anchor:start;fill:#000;fill-opacity:1;stroke:none;stroke-width:1px;stroke-linecap:butt;stroke-linejoin:miter;stroke-opacity:1"><flowRegion id="flowRegion5685"><rect id="rect5687" width="164.145" height="48.379" x="109.718" y="257.556" style="font-style:normal;font-variant:normal;font-weight:400;font-stretch:normal;font-size:40px;line-height:125%;font-family:'Gill Sans';-inkscape-font-specification:'Gill Sans, Normal';text-align:start;writing-mode:lr-tb;text-anchor:start"/></flowRegion><flowPara id="flowPara5689">glogg</flowPara></flowRoot></g><g id="layer3"><g id="g9780" transform="matrix(0.69760541,0,0,0.74483468,71.63739,1006.2102)" style="opacity:.83999999;fill:#000;fill-opacity:1"><g id="g9738" style="fill:#000;fill-opacity:1"><g id="c100_arrow" style="fill:#000;fill-opacity:1"><path id="path9741" d="m -2.6219877,15.571 c 10e-4,1.702 1.383,3.081 3.08500004,3.083 L 23.234992,18.652 18.496991,23.391 c -1.283,1.284 -1.349,3.301 -0.145,4.507 1.205,1.201 3.222001,1.138 4.507001,-0.146 l 9.896,-9.898 c 1.287,-1.283 1.352,-3.301 0.146,-4.506 -0.033,-0.029 -0.068,-0.051 -0.1,-0.08 -0.041,-0.043 -0.07,-0.094 -0.113,-0.139 l -9.764,-9.762 c -1.268,-1.266 -3.270001,-1.316 -4.474001,-0.111 -1.205,1.205 -1.153,3.208 0.111,4.476 l 4.755001,4.754 -22.85297966,0 C -1.2409877,12.485 -2.6219877,13.865 -2.6219877,15.571 Z" style="fill:#000;fill-opacity:1"/></g></g></g></g></svg>